<?xml version="1.0" encoding="UTF-8" standalone="no"?>
<svg xmlns="http://www.w3.org/2000/svg"  xmlns:xlink="http://www.w3.org/1999/xlink" version="1.0" width="216.939" height="271.119">
<path d="M 216.439,.5C216.439,.5 216.439,98.9 205.6,131C200.34,146.7 183.36,215.7 108.4,270.5C33.46,215.7 16.6,146.7 11.3,131.02C.5,98.9 .5,.5 .5,.5L216.44,.5L216.439,.5z" style="fill:#FFFFFF"/>
<path d="M.439,.5L100.845,.5L100.6,94.4L4.927,94.3C.624,51.5 .439,.5 .439,.5L.439,.5z" style="fill:#026CB6" />
<path d="M99.9,.5L118.1,.5L118.2,263.3C118.2,263.3 110,270.3 108.4,270.3C106.5,270.3 99.9,263.9 99.9,263.9L99.9,.5L99.9,.5zM7.4,113.8 4.4,94.3 212.5,94.3 209.8,113.8 7.4,113.8z" id="path19" style="fill:#D11242"/>
<path d="M216.439,0.5 C 216.439,0.5 216.439,98.886 205.617,131.017 C 200.34,146.688 183.359,215.704 108.408,270.5 C 33.457,215.703 16.6,146.688 11.322,131.017 C 0.5,98.886 0.5,0.5 0.5,0.5 L 216.439,0.5 L 216.439,0.5 z" id="path239" style="fill:none;stroke:#000;stroke-width:1"/>
<path d="M16.48,16.89v-4.6a1.475,1.475 0 1 1 -.14-2.6a1.48,1.48 0 1 1 2.55,0a1.475,1.475 0 1 1 -.14,2.6v4.6h4.6a1.475,1.475 0 1 1 2.6-.14a1.48,1.48 0 1 1 0,2.55a1.475,1.475 0 1 1 -2.6-.14h-4.6v4.6a1.475,1.475 0 1 1 .14,2.6a1.48,1.48 0 1 1 -2.55,0a1.475,1.475 0 1 1 .14-2.6v-4.6h-4.6a1.475,1.475 0 1 1 -2.6,.14a1.48,1.48 0 1 1 0-2.55a1.475,1.475 0 1 1 2.6,.14" id="crosslet" fill="#FFFFFF"/>
<use x="16.9" y="14.43" xlink:href="#crosslet"/>
<use x="32.8" y="28.86" xlink:href="#crosslet"/>
<use x="49.15" y="14.43" xlink:href="#crosslet"/>
<use x="66.05" xlink:href="#crosslet"/>
<use x="16.92" y="44.43" xlink:href="#crosslet"/>
<use x="49.15" y="44.43" xlink:href="#crosslet"/>
<use y="58.85" xlink:href="#crosslet"/>
<use x="66.05" y="58.85" xlink:href="#crosslet"/>
</svg>